<svg xmlns="http://www.w3.org/2000/svg" width="30" height="30" viewBox="0 0 30 30" fill="none">
  <defs>
    <linearGradient id="fill" x1="2.8" y1="2.6" x2="18.8" y2="25.6" gradientUnits="userSpaceOnUse">
      <stop offset="0" stop-color="#f7efde"/>
      <stop offset="0.4" stop-color="#dbc59d"/>
      <stop offset="0.78" stop-color="#a1917c"/>
      <stop offset="1" stop-color="#8998af"/>
    </linearGradient>
    <linearGradient id="edge" x1="3.2" y1="2.9" x2="19.9" y2="24.4" gradientUnits="userSpaceOnUse">
      <stop offset="0" stop-color="#fff8e6" stop-opacity="0.92"/>
      <stop offset="0.44" stop-color="#ead9b4" stop-opacity="0.86"/>
      <stop offset="1" stop-color="#c2cfdf" stop-opacity="0.78"/>
    </linearGradient>
    <filter id="halo" x="0" y="0" width="30" height="30" color-interpolation-filters="sRGB" filterUnits="userSpaceOnUse">
      <feGaussianBlur stdDeviation="0.36"/>
    </filter>
  </defs>
  <path d="M2.7 2.6L21.4 16.4L13.42 18.22L17.66 27.62L14.8 28.66L10.62 19.2L5.2 24.58L2.7 2.6Z" fill="#d4c39f" opacity="0.1" filter="url(#halo)"/>
  <path d="M3.1 2.9L20.74 15.96L12.96 17.74L17.16 27.16L14.96 27.96L10.78 18.52L5.74 23.54L3.1 2.9Z" fill="url(#fill)"/>
  <path d="M3.66 3.66L19.54 15.4L11.9 17.16L16.04 26.38L14.96 26.78L10.74 17.4L6.1 22.04L3.66 3.66Z" stroke="url(#edge)" stroke-width="0.96" stroke-linejoin="round"/>
  <path d="M5.2 5.44L16.68 13.86L11.4 15.04L9.04 17.36L5.2 5.44Z" fill="#fff" opacity="0.14"/>
</svg>
