<svg xmlns="http://www.w3.org/2000/svg" width="36" height="36" viewBox="0 0 36 36" fill="none">
  <defs>
    <linearGradient id="fill" x1="2.6" y1="2.2" x2="19.6" y2="29.6" gradientUnits="userSpaceOnUse">
      <stop offset="0" stop-color="#f8efd8"/>
      <stop offset="0.42" stop-color="#d7c29a"/>
      <stop offset="0.78" stop-color="#a8977d"/>
      <stop offset="1" stop-color="#8c98ab"/>
    </linearGradient>
    <linearGradient id="edge" x1="3.2" y1="2.6" x2="21.2" y2="26.4" gradientUnits="userSpaceOnUse">
      <stop offset="0" stop-color="#fff9e9" stop-opacity="0.96"/>
      <stop offset="0.38" stop-color="#e5d2a9" stop-opacity="0.88"/>
      <stop offset="1" stop-color="#b3bfd1" stop-opacity="0.82"/>
    </linearGradient>
    <filter id="halo" x="0" y="0" width="36" height="36" filterUnits="userSpaceOnUse" color-interpolation-filters="sRGB">
      <feGaussianBlur stdDeviation="0.55"/>
    </filter>
  </defs>
  <path d="M2.4 2.8L24.1 17.7L15.1 19.8L19.2 31.2L15.4 32.6L11.2 21.2L5 27.3L2.4 2.8Z" fill="#d6c39c" opacity="0.12" filter="url(#halo)"/>
  <path d="M2.7 3L23.5 17.3L14.7 19.3L18.8 30.7L15.8 31.8L11.7 20.3L5.7 26.2L2.7 3Z" fill="url(#fill)"/>
  <path d="M3.35 3.88L22.2 16.86L13.52 18.84L17.6 30.16L16.12 30.7L12.03 19.26L6.49 24.72L3.35 3.88Z" stroke="url(#edge)" stroke-width="1.02" stroke-linejoin="round"/>
  <path d="M5.4 5.9L18.6 15L12.35 16.42L9.5 19.2L5.4 5.9Z" fill="#ffffff" opacity="0.17"/>
</svg>
