<svg xmlns="http://www.w3.org/2000/svg" width="24" height="24" viewBox="0 0 30 30" fill="none">
  <defs>
    <linearGradient id="fill" x1="2.8" y1="2.4" x2="18.9" y2="25.7" gradientUnits="userSpaceOnUse">
      <stop offset="0" stop-color="#f8f3e6"/>
      <stop offset="0.36" stop-color="#e2cca2"/>
      <stop offset="0.74" stop-color="#af9878"/>
      <stop offset="1" stop-color="#8396b3"/>
    </linearGradient>
    <linearGradient id="edge" x1="3.2" y1="2.8" x2="19.9" y2="24.5" gradientUnits="userSpaceOnUse">
      <stop offset="0" stop-color="#fffef7" stop-opacity="0.96"/>
      <stop offset="0.44" stop-color="#f0dfbf" stop-opacity="0.88"/>
      <stop offset="1" stop-color="#c8d7e9" stop-opacity="0.8"/>
    </linearGradient>
    <filter id="softShadow" x="0" y="0" width="30" height="30" color-interpolation-filters="sRGB" filterUnits="userSpaceOnUse">
      <feGaussianBlur stdDeviation="0.22"/>
    </filter>
  </defs>
  <path d="M2.7 2.6L21.4 16.4L13.42 18.22L17.66 27.62L14.8 28.66L10.62 19.2L5.2 24.58L2.7 2.6Z" fill="#0f1b2d" opacity="0.44" transform="translate(0.52 0.62)" filter="url(#softShadow)"/>
  <path d="M3.1 2.9L20.74 15.96L12.96 17.74L17.16 27.16L14.96 27.96L10.78 18.52L5.74 23.54L3.1 2.9Z" fill="url(#fill)"/>
  <path d="M3.66 3.66L19.54 15.4L11.9 17.16L16.04 26.38L14.96 26.78L10.74 17.4L6.1 22.04L3.66 3.66Z" stroke="#0f1a2b" stroke-opacity="0.74" stroke-width="1.58" stroke-linejoin="round"/>
  <path d="M3.66 3.66L19.54 15.4L11.9 17.16L16.04 26.38L14.96 26.78L10.74 17.4L6.1 22.04L3.66 3.66Z" stroke="url(#edge)" stroke-width="0.96" stroke-linejoin="round"/>
  <path d="M5.34 5.54L16.88 13.98L11.46 15.2L9.02 17.6L5.34 5.54Z" fill="#ffffff" opacity="0.2"/>
</svg>
